{
  "accessors": [
    {
      "bufferView": 2,
      "componentType": 5126,
      "count": 65534,
      "max": [
        52.17040252685547,
        2.5188300609588623,
        26.049800872802734
      ],
      "min": [
        -33.424400329589844,
        -45.3135986328125,
        -35.93159866333008
      ],
      "type": "VEC3"
    },
    {
      "bufferView": 2,
      "byteOffset": 786408,
      "componentType": 5126,
      "count": 65534,
      "max": [
        0.9999977350234985,
        0.9999998807907104,
        0.9999998211860657
      ],
      "min": [
        -0.9999997019767761,
        -0.9999999403953552,
        -1.0
      ],
      "type": "VEC3"
    },
    {
      "bufferView": 1,
      "componentType": 5126,
      "count": 65534,
      "max": [
        0.9996060132980347,
        0.9997559785842896
      ],
      "min": [
        0.00024399999529123306,
        0.00038499999209307134
      ],
      "type": "VEC2"
    },
    {
      "bufferView": 0,
      "componentType": 5125,
      "count": 214116,
      "type": "SCALAR"
    },
    {
      "bufferView": 2,
      "byteOffset": 1572816,
      "componentType": 5126,
      "count": 21644,
      "max": [
        52.42219924926758,
        1.2891299724578857,
        24.482200622558594
      ],
      "min": [
        -32.481502532958984,
        -45.3135986328125,
        -36.811798095703125
      ],
      "type": "VEC3"
    },
    {
      "bufferView": 2,
      "byteOffset": 1832544,
      "componentType": 5126,
      "count": 21644,
      "max": [
        1.0,
        0.999997079372406,
        1.0
      ],
      "min": [
        -1.0,
        -0.9999999403953552,
        -1.0
      ],
      "type": "VEC3"
    },
    {
      "bufferView": 1,
      "byteOffset": 524272,
      "componentType": 5126,
      "count": 21644,
      "max": [
        0.999629020690918,
        0.9997559785842896
      ],
      "min": [
        0.00024399999529123306,
        0.0007379999733529985
      ],
      "type": "VEC2"
    },
    {
      "bufferView": 0,
      "byteOffset": 856464,
      "componentType": 5125,
      "count": 49794,
      "type": "SCALAR"
    },
    {
      "bufferView": 2,
      "byteOffset": 2092272,
      "componentType": 5126,
      "count": 62434,
      "max": [
        52.08400344848633,
        1.0847599506378174,
        25.1820011138916
      ],
      "min": [
        -33.30220031738281,
        -45.3135986328125,
        -36.811798095703125
      ],
      "type": "VEC3"
    },
    {
      "bufferView": 2,
      "byteOffset": 2841480,
      "componentType": 5126,
      "count": 62434,
      "max": [
        0.9999999403953552,
        0.9999998807907104,
        0.9999918937683105
      ],
      "min": [
        -1.0,
        -1.0,
        -1.0
      ],
      "type": "VEC3"
    },
    {
      "bufferView": 1,
      "byteOffset": 697424,
      "componentType": 5126,
      "count": 62434,
      "max": [
        0.9996200203895569,
        1.9997559785842896
      ],
      "min": [
        0.00023999999393709004,
        1.0003759860992432
      ],
      "type": "VEC2"
    },
    {
      "bufferView": 0,
      "byteOffset": 1055640,
      "componentType": 5125,
      "count": 220194,
      "type": "SCALAR"
    },
    {
      "bufferView": 2,
      "byteOffset": 3590688,
      "componentType": 5126,
      "count": 65532,
      "max": [
        52.10890197753906,
        1.2891299724578857,
        25.106298446655273
      ],
      "min": [
        -33.30220031738281,
        -45.3135986328125,
        -35.835601806640625
      ],
      "type": "VEC3"
    },
    {
      "bufferView": 2,
      "byteOffset": 4377072,
      "componentType": 5126,
      "count": 65532,
      "max": [
        0.999997079372406,
        0.9999988675117493,
        0.9999943375587463
      ],
      "min": [
        -0.9999994039535522,
        -0.9999997615814209,
        -0.9999999403953552
      ],
      "type": "VEC3"
    },
    {
      "bufferView": 1,
      "byteOffset": 1196896,
      "componentType": 5126,
      "count": 65532,
      "max": [
        1.9995249509811401,
        0.9997599720954895
      ],
      "min": [
        1.0002440214157104,
        0.0003699999942909926
      ],
      "type": "VEC2"
    },
    {
      "bufferView": 0,
      "byteOffset": 1936416,
      "componentType": 5125,
      "count": 231975,
      "type": "SCALAR"
    },
    {
      "bufferView": 2,
      "byteOffset": 5163456,
      "componentType": 5126,
      "count": 5456,
      "max": [
        52.08400344848633,
        0.9295539855957031,
        24.528099060058594
      ],
      "min": [
        -31.792598724365234,
        -45.3135986328125,
        -35.55480194091797
      ],
      "type": "VEC3"
    },
    {
      "bufferView": 2,
      "byteOffset": 5228928,
      "componentType": 5126,
      "count": 5456,
      "max": [
        0.9999986886978149,
        0.9999532699584961,
        0.9999801516532898
      ],
      "min": [
        -0.9999997019767761,
        -0.9999968409538269,
        -0.999998927116394
      ],
      "type": "VEC3"
    },
    {
      "bufferView": 1,
      "byteOffset": 1721152,
      "componentType": 5126,
      "count": 5456,
      "max": [
        1.9991929531097412,
        0.9997599720954895
      ],
      "min": [
        1.0002440214157104,
        0.0005600000149570405
      ],
      "type": "VEC2"
    },
    {
      "bufferView": 0,
      "byteOffset": 2864316,
      "componentType": 5125,
      "count": 13356,
      "type": "SCALAR"
    },
    {
      "bufferView": 2,
      "byteOffset": 5294400,
      "componentType": 5126,
      "count": 1793,
      "max": [
        51.859397888183594,
        1.2941999435424805,
        24.0010986328125
      ],
      "min": [
        -33.180599212646484,
        -43.68470001220703,
        -35.08660125732422
      ],
      "type": "VEC3"
    },
    {
      "bufferView": 2,
      "byteOffset": 5315916,
      "componentType": 5126,
      "count": 1793,
      "max": [
        1.0,
        0.999652087688446,
        0.9990503191947937
      ],
      "min": [
        -1.0,
        -0.9993764162063599,
        -0.9990503191947937
      ],
      "type": "VEC3"
    },
    {
      "bufferView": 1,
      "byteOffset": 1764800,
      "componentType": 5126,
      "count": 1793,
      "max": [
        1.9975429773330688,
        1.7002500295639038
      ],
      "min": [
        1.0002399682998657,
        1.000380039215088
      ],
      "type": "VEC2"
    },
    {
      "bufferView": 0,
      "byteOffset": 2917740,
      "componentType": 5125,
      "count": 6522,
      "type": "SCALAR"
    },
    {
      "bufferView": 2,
      "byteOffset": 5337432,
      "componentType": 5126,
      "count": 840,
      "max": [
        53.99209976196289,
        0.43310800194740295,
        28.566499710083008
      ],
      "min": [
        -36.89509963989258,
        -44.5547981262207,
        -38.186500549316406
      ],
      "type": "VEC3"
    },
    {
      "bufferView": 2,
      "byteOffset": 5347512,
      "componentType": 5126,
      "count": 840,
      "max": [
        0.9999971985816956,
        1.0,
        1.0
      ],
      "min": [
        -0.9998974800109863,
        -1.0,
        -1.0
      ],
      "type": "VEC3"
    },
    {
      "bufferView": 1,
      "byteOffset": 1779144,
      "componentType": 5126,
      "count": 840,
      "max": [
        1.9975429773330688,
        3.835200071334839
      ],
      "min": [
        1.0025739669799805,
        3.00246000289917
      ],
      "type": "VEC2"
    },
    {
      "bufferView": 0,
      "byteOffset": 2943828,
      "componentType": 5125,
      "count": 3456,
      "type": "SCALAR"
    },
    {
      "bufferView": 2,
      "byteOffset": 5357592,
      "componentType": 5126,
      "count": 65341,
      "max": [
        52.151798248291016,
        2.5188300609588623,
        25.413801193237305
      ],
      "min": [
        -33.30220031738281,
        -45.31399917602539,
        -36.04680252075195
      ],
      "type": "VEC3"
    },
    {
      "bufferView": 2,
      "byteOffset": 6141684,
      "componentType": 5126,
      "count": 65341,
      "max": [
        0.9999995231628418,
        1.0,
        0.9999638199806213
      ],
      "min": [
        -1.0,
        -1.0,
        -1.0
      ],
      "type": "VEC3"
    },
    {
      "bufferView": 1,
      "byteOffset": 1785864,
      "componentType": 5126,
      "count": 65341,
      "max": [
        2.999619960784912,
        0.9997559785842896
      ],
      "min": [
        2.0002400875091553,
        0.00037200000951997936
      ],
      "type": "VEC2"
    },
    {
      "bufferView": 0,
      "byteOffset": 2957652,
      "componentType": 5125,
      "count": 222168,
      "type": "SCALAR"
    },
    {
      "bufferView": 2,
      "byteOffset": 6925776,
      "componentType": 5126,
      "count": 58629,
      "max": [
        52.42219924926758,
        1.2941999435424805,
        26.049800872802734
      ],
      "min": [
        -33.424400329589844,
        -45.3135986328125,
        -36.811798095703125
      ],
      "type": "VEC3"
    },
    {
      "bufferView": 2,
      "byteOffset": 7629324,
      "componentType": 5126,
      "count": 58629,
      "max": [
        0.9999955892562866,
        0.9999986886978149,
        0.9999979138374329
      ],
      "min": [
        -0.9999988079071045,
        -0.9999978542327881,
        -1.0
      ],
      "type": "VEC3"
    },
    {
      "bufferView": 1,
      "byteOffset": 2308592,
      "componentType": 5126,
      "count": 58629,
      "max": [
        3.9995999336242676,
        0.9997599720954895
      ],
      "min": [
        3.0002400875091553,
        0.0003699999942909926
      ],
      "type": "VEC2"
    },
    {
      "bufferView": 0,
      "byteOffset": 3846324,
      "componentType": 5125,
      "count": 188931,
      "type": "SCALAR"
    }
  ],
  "asset": {
    "extras": {
      "author": "fhernand (https://sketchfab.com/fhernand)",
      "license": "CC-BY-4.0 (http://creativecommons.org/licenses/by/4.0/)",
      "source": "https://sketchfab.com/3d-models/bedroom-869e6ec859a84240b9a099ae829f47fa",
      "title": "Bedroom"
    },
    "generator": "Sketchfab-12.68.0",
    "version": "2.0"
  },
  "bufferViews": [
    {
      "buffer": 0,
      "byteLength": 4602048,
      "name": "floatBufferViews",
      "target": 34963
    },
    {
      "buffer": 0,
      "byteLength": 2777624,
      "byteOffset": 4602048,
      "byteStride": 8,
      "name": "floatBufferViews",
      "target": 34962
    },
    {
      "buffer": 0,
      "byteLength": 8332872,
      "byteOffset": 7379672,
      "byteStride": 12,
      "name": "floatBufferViews",
      "target": 34962
    }
  ],
  "buffers": [
    {
      "byteLength": 15712544,
      "uri": "scene.bin"
    }
  ],
  "extensionsUsed": [
    "KHR_materials_unlit"
  ],
  "images": [
    {
      "uri": "textures/iscv2_Material_u1_v1_baseColor.jpeg"
    },
    {
      "uri": "textures/iscv2_Material_u1_v2_baseColor.jpeg"
    },
    {
      "uri": "textures/iscv2_Material_u2_v1_baseColor.jpeg"
    },
    {
      "uri": "textures/iscv2_Material_u2_v2_baseColor.jpeg"
    },
    {
      "uri": "textures/iscv2_Material_u2_v4_baseColor.jpeg"
    },
    {
      "uri": "textures/iscv2_Material_u3_v1_baseColor.jpeg"
    },
    {
      "uri": "textures/iscv2_Material_u4_v1_baseColor.jpeg"
    }
  ],
  "materials": [
    {
      "doubleSided": true,
      "extensions": {
        "KHR_materials_unlit": {}
      },
      "name": "iscv2_Material_u1_v1",
      "pbrMetallicRoughness": {
        "baseColorTexture": {
          "index": 0
        },
        "metallicFactor": 0.0
      }
    },
    {
      "doubleSided": true,
      "extensions": {
        "KHR_materials_unlit": {}
      },
      "name": "iscv2_Material_u1_v2",
      "pbrMetallicRoughness": {
        "baseColorTexture": {
          "index": 1
        },
        "metallicFactor": 0.0
      }
    },
    {
      "doubleSided": true,
      "extensions": {
        "KHR_materials_unlit": {}
      },
      "name": "iscv2_Material_u2_v1",
      "pbrMetallicRoughness": {
        "baseColorTexture": {
          "index": 2
        },
        "metallicFactor": 0.0
      }
    },
    {
      "extensions": {
        "KHR_materials_unlit": {}
      },
      "name": "iscv2_Material_u2_v2",
      "pbrMetallicRoughness": {
        "baseColorTexture": {
          "index": 3
        },
        "metallicFactor": 0.0
      }
    },
    {
      "doubleSided": true,
      "extensions": {
        "KHR_materials_unlit": {}
      },
      "name": "iscv2_Material_u2_v4",
      "pbrMetallicRoughness": {
        "baseColorTexture": {
          "index": 4
        },
        "metallicFactor": 0.0
      }
    },
    {
      "doubleSided": true,
      "extensions": {
        "KHR_materials_unlit": {}
      },
      "name": "iscv2_Material_u3_v1",
      "pbrMetallicRoughness": {
        "baseColorTexture": {
          "index": 5
        },
        "metallicFactor": 0.0
      }
    },
    {
      "doubleSided": true,
      "extensions": {
        "KHR_materials_unlit": {}
      },
      "name": "iscv2_Material_u4_v1",
      "pbrMetallicRoughness": {
        "baseColorTexture": {
          "index": 6
        },
        "metallicFactor": 0.0
      }
    }
  ],
  "meshes": [
    {
      "name": "Object_0",
      "primitives": [
        {
          "attributes": {
            "NORMAL": 1,
            "POSITION": 0,
            "TEXCOORD_0": 2
          },
          "indices": 3,
          "material": 0,
          "mode": 4
        }
      ]
    },
    {
      "name": "Object_1",
      "primitives": [
        {
          "attributes": {
            "NORMAL": 5,
            "POSITION": 4,
            "TEXCOORD_0": 6
          },
          "indices": 7,
          "material": 0,
          "mode": 4
        }
      ]
    },
    {
      "name": "Object_2",
      "primitives": [
        {
          "attributes": {
            "NORMAL": 9,
            "POSITION": 8,
            "TEXCOORD_0": 10
          },
          "indices": 11,
          "material": 1,
          "mode": 4
        }
      ]
    },
    {
      "name": "Object_3",
      "primitives": [
        {
          "attributes": {
            "NORMAL": 13,
            "POSITION": 12,
            "TEXCOORD_0": 14
          },
          "indices": 15,
          "material": 2,
          "mode": 4
        }
      ]
    },
    {
      "name": "Object_4",
      "primitives": [
        {
          "attributes": {
            "NORMAL": 17,
            "POSITION": 16,
            "TEXCOORD_0": 18
          },
          "indices": 19,
          "material": 2,
          "mode": 4
        }
      ]
    },
    {
      "name": "Object_5",
      "primitives": [
        {
          "attributes": {
            "NORMAL": 21,
            "POSITION": 20,
            "TEXCOORD_0": 22
          },
          "indices": 23,
          "material": 3,
          "mode": 4
        }
      ]
    },
    {
      "name": "Object_6",
      "primitives": [
        {
          "attributes": {
            "NORMAL": 25,
            "POSITION": 24,
            "TEXCOORD_0": 26
          },
          "indices": 27,
          "material": 4,
          "mode": 4
        }
      ]
    },
    {
      "name": "Object_7",
      "primitives": [
        {
          "attributes": {
            "NORMAL": 29,
            "POSITION": 28,
            "TEXCOORD_0": 30
          },
          "indices": 31,
          "material": 5,
          "mode": 4
        }
      ]
    },
    {
      "name": "Object_8",
      "primitives": [
        {
          "attributes": {
            "NORMAL": 33,
            "POSITION": 32,
            "TEXCOORD_0": 34
          },
          "indices": 35,
          "material": 6,
          "mode": 4
        }
      ]
    }
  ],
  "nodes": [
    {
      "children": [
        1
      ],
      "matrix": [
        0.06023597717285156,
        0.0,
        0.0,
        0.0,
        0.0,
        -0.06023597717285156,
        -4.012522126085709e-17,
        0.0,
        0.0,
        4.012522126085709e-17,
        -0.06023597717285156,
        0.0,
        0.0,
        -26.870788574218754,
        17.250867843627923,
        1.0
      ],
      "name": "Sketchfab_model"
    },
    {
      "children": [
        2,
        3,
        4,
        5,
        6,
        7,
        8,
        9,
        10
      ],
      "name": "iscv2.obj.cleaner.materialmerger.gles"
    },
    {
      "mesh": 0,
      "name": "Object_2"
    },
    {
      "mesh": 1,
      "name": "Object_3"
    },
    {
      "mesh": 2,
      "name": "Object_4"
    },
    {
      "mesh": 3,
      "name": "Object_5"
    },
    {
      "mesh": 4,
      "name": "Object_6"
    },
    {
      "mesh": 5,
      "name": "Object_7"
    },
    {
      "mesh": 6,
      "name": "Object_8"
    },
    {
      "mesh": 7,
      "name": "Object_9"
    },
    {
      "mesh": 8,
      "name": "Object_10"
    }
  ],
  "samplers": [
    {
      "magFilter": 9729,
      "minFilter": 9987,
      "wrapS": 10497,
      "wrapT": 10497
    }
  ],
  "scene": 0,
  "scenes": [
    {
      "name": "Sketchfab_Scene",
      "nodes": [
        0
      ]
    }
  ],
  "textures": [
    {
      "sampler": 0,
      "source": 0
    },
    {
      "sampler": 0,
      "source": 1
    },
    {
      "sampler": 0,
      "source": 2
    },
    {
      "sampler": 0,
      "source": 3
    },
    {
      "sampler": 0,
      "source": 4
    },
    {
      "sampler": 0,
      "source": 5
    },
    {
      "sampler": 0,
      "source": 6
    }
  ]
}
